<?xml version="1.0" encoding="UTF-8" standalone="no"?>
<!-- Created with Inkscape (http://www.inkscape.org/) -->

<svg
   width="73.545357mm"
   height="27.467308mm"
   viewBox="0 0 73.545357 27.467308"
   version="1.1"
   id="svg5"
   inkscape:version="1.1.2 (08b2f3d93c, 2022-04-05)"
   sodipodi:docname="logo-dark.svg"
   xmlns:inkscape="http://www.inkscape.org/namespaces/inkscape"
   xmlns:sodipodi="http://sodipodi.sourceforge.net/DTD/sodipodi-0.dtd"
   xmlns="http://www.w3.org/2000/svg"
   xmlns:svg="http://www.w3.org/2000/svg">
  <sodipodi:namedview
     id="namedview7"
     pagecolor="#ffffff"
     bordercolor="#666666"
     borderopacity="1.0"
     inkscape:pageshadow="2"
     inkscape:pageopacity="0.0"
     inkscape:pagecheckerboard="0"
     inkscape:document-units="mm"
     showgrid="false"
     fit-margin-top="0"
     fit-margin-left="0"
     fit-margin-right="0"
     fit-margin-bottom="0"
     inkscape:zoom="1.4263439"
     inkscape:cx="92.894847"
     inkscape:cy="77.12025"
     inkscape:window-width="1712"
     inkscape:window-height="899"
     inkscape:window-x="0"
     inkscape:window-y="0"
     inkscape:window-maximized="1"
     inkscape:current-layer="layer1" />
  <defs
     id="defs2" />
  <g
     inkscape:label="Layer 1"
     inkscape:groupmode="layer"
     id="layer1"
     transform="translate(-28.354797,-61.539574)">
    <rect
       style="fill:#ffffff;fill-opacity:1;fill-rule:evenodd;stroke-width:0.218"
       id="rect31"
       width="73.545357"
       height="27.467308"
       x="28.354797"
       y="61.53957"
       rx="5"
       ry="5" />
    <path
       d="m 38.427241,83.254791 h -2.59345 q -0.08943,0 -0.08943,-0.111786 l 0.04471,-15.728378 q 0,-0.08943 0.08943,-0.08943 h 2.794665 q 0.08943,0 0.156501,0.08943 l 2.09041,3.018239 2.079231,-3.018239 q 0.06707,-0.08943 0.16768,-0.08943 h 2.805844 q 0.100608,0 0.100608,0.08943 l 0.04472,15.728378 q 0,0.111786 -0.08943,0.111786 h -2.59345 q -0.08943,0 -0.08943,-0.111786 l -0.02236,-11.681702 -2.403413,3.487742 -2.381055,-3.487742 -0.02236,11.681702 q 0,0.111786 -0.08943,0.111786 z"
       style="font-size:22.8939px;line-height:1.25;font-family:Koulen;-inkscape-font-specification:Koulen;fill:#003649;stroke-width:0.572347;fill-opacity:1"
       id="path4901" />
    <path
       d="m 55.519415,83.254791 h -7.400274 q -0.08943,0 -0.08943,-0.111786 l 0.02236,-15.728378 q 0,-0.08943 0.08943,-0.08943 h 7.35556 q 0.08943,0 0.08943,0.111786 v 2.559914 q 0,0.08943 -0.08943,0.08943 H 50.80202 v 3.577172 h 4.695038 q 0.08943,0 0.08943,0.08943 l 0.02236,2.593449 q 0,0.08943 -0.08943,0.08943 H 50.80202 v 4.001961 h 4.717395 q 0.08943,0 0.08943,0.111787 v 2.615807 q 0,0.08943 -0.08943,0.08943 z"
       style="font-size:22.8939px;line-height:1.25;font-family:Koulen;-inkscape-font-specification:Koulen;fill:#003649;stroke-width:0.572347;fill-opacity:1"
       id="path4903" />
    <path
       d="m 60.326239,83.254791 h -2.59345 q -0.08943,0 -0.08943,-0.111786 l 0.04471,-15.728378 q 0,-0.08943 0.08943,-0.08943 h 2.794665 q 0.08943,0 0.156502,0.08943 l 2.09041,3.018239 2.079231,-3.018239 q 0.06707,-0.08943 0.16768,-0.08943 h 2.805844 q 0.100608,0 0.100608,0.08943 l 0.04471,15.728378 q 0,0.111786 -0.08943,0.111786 h -2.59345 q -0.08943,0 -0.08943,-0.111786 l -0.02236,-11.681702 -2.403412,3.487742 -2.381056,-3.487742 -0.02236,11.681702 q 0,0.111786 -0.08943,0.111786 z"
       style="font-size:22.8939px;line-height:1.25;font-family:Koulen;-inkscape-font-specification:Koulen;fill:#003649;stroke-width:0.572347;fill-opacity:1"
       id="path4905" />
    <path
       d="m 74.165424,83.478365 q -1.218474,0 -2.246911,-0.626006 -1.017259,-0.626005 -1.643264,-1.66562 -0.614826,-1.050794 -0.614826,-2.302805 l 0.02236,-7.254951 q 0,-1.274368 0.614827,-2.291626 0.603647,-1.028437 1.632084,-1.643263 1.028437,-0.626005 2.235733,-0.626005 1.25201,0 2.246911,0.614826 1.006079,0.614826 1.609727,1.654442 0.614827,1.028437 0.614827,2.291626 l 0.02236,7.254951 q 0,1.252011 -0.603648,2.291626 -0.614826,1.050794 -1.632085,1.676799 -1.017258,0.626006 -2.258089,0.626006 z m 0,-2.76113 q 0.693077,0 1.207295,-0.558933 0.514219,-0.570112 0.514219,-1.274368 l -0.02236,-7.254951 q 0,-0.760149 -0.480682,-1.285546 -0.480683,-0.525398 -1.218474,-0.525398 -0.704256,0 -1.207296,0.514219 -0.50304,0.514218 -0.50304,1.296725 v 7.254951 q 0,0.748971 0.50304,1.296725 0.50304,0.536576 1.207296,0.536576 z"
       style="font-size:22.8939px;line-height:1.25;font-family:Koulen;-inkscape-font-specification:Koulen;fill:#003649;stroke-width:0.572347;fill-opacity:1"
       id="path4907" />
    <path
       d="m 83.085996,83.254791 h -2.593449 q -0.111787,0 -0.111787,-0.111786 l 0.02236,-15.728378 q 0,-0.08943 0.08943,-0.08943 h 2.571092 q 0.08943,0 0.08943,0.08943 l 0.02236,15.728378 q 0,0.111786 -0.08943,0.111786 z"
       style="font-size:22.8939px;line-height:1.25;font-family:Koulen;-inkscape-font-specification:Koulen;fill:#003649;stroke-width:0.572347;fill-opacity:1"
       id="path4909" />
    <path
       d="m 87.870463,83.254791 h -2.59345 q -0.08943,0 -0.08943,-0.111786 l 0.04471,-15.728378 q 0,-0.08943 0.08943,-0.08943 h 4.627966 q 1.240831,0 2.280447,0.603648 1.039615,0.603647 1.654442,1.620906 0.626005,1.017258 0.626005,2.302804 0,0.8384 -0.257109,1.520298 -0.25711,0.681898 -0.603648,1.151402 -0.33536,0.469504 -0.614826,0.693077 1.240831,1.374976 1.240831,3.230634 l 0.02236,4.695038 q 0,0.111786 -0.111786,0.111786 h -2.59345 q -0.08943,0 -0.08943,-0.06707 v -4.739752 q 0,-0.827221 -0.581291,-1.430869 -0.58129,-0.603648 -1.430868,-0.603648 h -1.50912 l -0.02236,6.729555 q 0,0.111786 -0.08943,0.111786 z M 89.949694,70.06397 h -1.967445 v 3.599529 h 1.967445 q 0.704256,0 1.25201,-0.525397 0.558933,-0.525397 0.558933,-1.285546 0,-0.726613 -0.536576,-1.25201 -0.536576,-0.536576 -1.274367,-0.536576 z"
       style="font-size:22.8939px;line-height:1.25;font-family:Koulen;-inkscape-font-specification:Koulen;fill:#003649;stroke-width:0.572347;fill-opacity:1"
       id="path4911" />
  </g>
</svg>
